<?xml version="1.0" encoding="utf-8"?>
<!-- Generator: Adobe Illustrator 24.3.0, SVG Export Plug-In . SVG Version: 6.00 Build 0)  -->
<svg version="1.1" id="Layer_1" xmlns="http://www.w3.org/2000/svg" xmlns:xlink="http://www.w3.org/1999/xlink" x="0px" y="0px"
	 viewBox="0 0 200 200" style="enable-background:new 0 0 200 200;" xml:space="preserve">
<style type="text/css">
	.st0{fill:#FFFFFF;}
	.st1{fill:none;stroke:#111111;stroke-width:2.1314;stroke-miterlimit:10;}
	.st2{fill:#FFFFFF;stroke:#111111;stroke-width:2.1314;stroke-miterlimit:10;}
	.st3{fill:#111111;}
</style>
<circle class="st0" cx="100" cy="100" r="100"/>
<g>
	<path class="st1" d="M163.94,139.12H36.06c-4.69,0-8.53-3.84-8.53-8.53V50.31c0-4.69,3.84-8.53,8.53-8.53h127.89
		c4.69,0,8.53,3.84,8.53,8.53v80.29C172.47,135.28,168.63,139.12,163.94,139.12z"/>
	<rect x="42.45" y="51.73" class="st2" width="113.68" height="74.6"/>
	<path class="st1" d="M42.91,125.91c9.17-8.8,18.35-17.61,27.52-26.41c11.57-5.7,23.14-11.4,34.71-17.1
		c12.35-5.63,24.69-11.27,37.04-16.9c4.65-4.59,9.29-9.18,13.93-13.76"/>
	<circle class="st3" cx="71.22" cy="100.1" r="6.65"/>
	<circle class="st3" cx="104.92" cy="82.9" r="6.65"/>
	<circle class="st3" cx="142.77" cy="67" r="6.65"/>
	<path class="st1" d="M126.65,154.26c-0.12,2.49-15.75,3.98-28.37,3.96c-13.59-0.02-28.32-1.79-28.37-3.96
		c-0.03-1.19,6.13-0.74,12.74-5.02c4.59-2.98,7.44-6.95,9.21-10.12c3.85,0.05,7.71,0.1,11.56,0.15c1.93,2.74,4.97,6.3,9.53,9.21
		C120.32,153.16,126.72,152.93,126.65,154.26z"/>
</g>
</svg>
