<?xml version="1.0" encoding="utf-8"?>
<!-- Generator: Adobe Illustrator 24.3.0, SVG Export Plug-In . SVG Version: 6.00 Build 0)  -->
<svg version="1.1" id="Layer_1" xmlns="http://www.w3.org/2000/svg" xmlns:xlink="http://www.w3.org/1999/xlink" x="0px" y="0px"
	 viewBox="0 0 200 200" style="enable-background:new 0 0 200 200;" xml:space="preserve">
<style type="text/css">
	.st0{fill:#FFFFFF;}
	.st1{fill:#F4F4F4;stroke:#111111;stroke-width:1.8499;stroke-miterlimit:10;}
	.st2{fill:#FFFFFF;stroke:#111111;stroke-width:1.8499;stroke-miterlimit:10;}
</style>
<circle class="st0" cx="100" cy="100" r="100"/>
<g>
	<rect x="41" y="87.02" class="st1" width="27.01" height="75.47"/>
	<path class="st2" d="M73.93,87.02v66.97h63.27c4.48-1.66,7.65-5.54,8.15-10.02c0.57-5-2.43-8.59-2.97-9.22
		c4.2-0.18,7.87-2.83,9.25-6.66c1.92-5.32-1.69-9.8-1.85-9.99c0,0,18.87-7.77,2.59-21.46c0,0,14.43-8.51,0.74-18.5H111.3
		c1.43-3.33,6.69-16.59,0.74-28.86c-1.33-2.75-4.05-8.34-10.15-10.58c-0.87-0.32-7.26-2.66-10.2,0.22
		c-4.36,4.26,4.82,14.15,0.37,22.94c-2.61,5.15-7.03,4.24-12.21,10.73C75.8,77.66,74.45,83.28,73.93,87.02z"/>
</g>
</svg>
