<?xml version="1.0" encoding="utf-8"?>
<!-- Generator: Adobe Illustrator 24.3.0, SVG Export Plug-In . SVG Version: 6.00 Build 0)  -->
<svg version="1.1" id="Layer_1" xmlns="http://www.w3.org/2000/svg" xmlns:xlink="http://www.w3.org/1999/xlink" x="0px" y="0px"
	 viewBox="0 0 200 200" style="enable-background:new 0 0 200 200;" xml:space="preserve">
<style type="text/css">
	.st0{fill:#FFFFFF;}
	.st1{fill:#FFFFFF;stroke:#111111;stroke-width:1.106;stroke-miterlimit:10;}
	.st2{fill:#FFFFFF;stroke:#111111;stroke-width:0.553;stroke-miterlimit:10;}
	.st3{fill:#FFFFFF;stroke:#111111;stroke-width:0.5892;stroke-miterlimit:10;}
	.st4{fill:none;stroke:#111111;stroke-width:1.106;stroke-miterlimit:10;}
</style>
<circle class="st0" cx="100" cy="100" r="100"/>
<g>
	<path class="st1" d="M156.68,126.41H61.84c-1.82,0-3.32-1.49-3.32-3.32v-64.7c0-1.82,1.49-3.32,3.32-3.32h94.84
		c1.82,0,3.32,1.49,3.32,3.32v64.7C160,124.91,158.51,126.41,156.68,126.41z"/>
	<path class="st1" d="M148.66,121.15H71.24c-1.82,0-3.32-1.49-3.32-3.32V63.64c0-1.82,1.49-3.32,3.32-3.32h77.42
		c1.82,0,3.32,1.49,3.32,3.32v54.19C151.98,119.66,150.49,121.15,148.66,121.15z"/>
	<path id="tablet" class="st1" d="M81.47,144.93H43.32c-1.82,0-3.32-1.49-3.32-3.32V89.35c0-1.82,1.49-3.32,3.32-3.32h38.16
		c1.82,0,3.32,1.49,3.32,3.32v52.26C84.79,143.44,83.3,144.93,81.47,144.93z"/>
	<g id="phone">
		<path class="st1" d="M147.28,144.93h-17.97c-1.82,0-3.32-1.49-3.32-3.32v-40.92c0-1.82,1.49-3.32,3.32-3.32h17.97
			c1.82,0,3.32,1.49,3.32,3.32v40.92C150.6,143.44,149.11,144.93,147.28,144.93z"/>
		<circle class="st2" cx="138.29" cy="139.96" r="2.83"/>
		<path class="st3" d="M145.64,135.81h-14.39c-1.82,0-3.32-1.49-3.32-3.32v-29.31c0-1.82,1.49-3.32,3.32-3.32h14.39
			c1.82,0,3.32,1.49,3.32,3.32v29.31C148.95,134.31,147.46,135.81,145.64,135.81z"/>
	</g>
	<path class="st4" d="M124.96,140.84c-0.07,2.25-8.55,3.58-15.4,3.56c-7.37-0.02-15.37-1.61-15.4-3.56
		c-0.02-1.07,3.33-0.67,6.92-4.52c2.49-2.68,4.04-6.25,5-9.11c2.09,0.04,4.18,0.09,6.27,0.14c1.05,2.47,2.7,5.67,5.18,8.29
		C121.53,139.85,125,139.64,124.96,140.84z"/>
	<path class="st4" d="M78.96,142.04H45.68c-1.82,0-3.32-1.49-3.32-3.32V91.65c0-1.82,1.49-3.32,3.32-3.32h33.28
		c1.82,0,3.32,1.49,3.32,3.32v47.07C82.28,140.55,80.79,142.04,78.96,142.04z"/>
</g>
</svg>
